<?xml version="1.0" encoding="UTF-8"?> <svg xmlns="http://www.w3.org/2000/svg" id="Layer_2" data-name="Layer 2" viewBox="0 0 731.5 231.65"><defs><style> .cls-1 { fill: #fff; stroke-width: 0px; } </style></defs><g id="Layer_1-2" data-name="Layer 1"><g><g><path class="cls-1" d="M461.56,181.1v-18.36h7.31c1.65,0,2.92.47,3.8,1.41.89.94,1.33,2.22,1.33,3.85s-.44,2.92-1.33,3.85-2.15,1.41-3.8,1.41h-5.1v7.84h-2.21ZM463.77,171.32h5.1c.88,0,1.56-.23,2.04-.69.48-.45.72-1.1.72-1.95v-1.37c0-.84-.24-1.49-.72-1.95-.48-.46-1.16-.68-2.04-.68h-5.1v6.63Z"></path><path class="cls-1" d="M486.79,181.1c-.79,0-1.36-.21-1.7-.63-.34-.42-.56-.95-.64-1.58h-.13c-.3.84-.79,1.47-1.47,1.89-.68.42-1.5.63-2.45.63-1.44,0-2.56-.37-3.36-1.11s-1.2-1.74-1.2-3,.47-2.26,1.41-2.95,2.4-1.03,4.38-1.03h2.68v-1.34c0-.96-.26-1.7-.79-2.21-.53-.51-1.33-.76-2.42-.76-.82,0-1.51.18-2.06.55-.55.37-1.01.86-1.38,1.47l-1.26-1.18c.37-.74.96-1.36,1.76-1.88.81-.52,1.82-.78,3.05-.78,1.65,0,2.93.4,3.84,1.21.91.81,1.37,1.93,1.37,3.36v7.45h1.55v1.87h-1.18ZM480.74,179.63c.53,0,1.01-.06,1.45-.19.44-.12.81-.3,1.13-.53.31-.23.56-.49.74-.79.17-.3.26-.62.26-.97v-2.24h-2.79c-1.21,0-2.09.17-2.64.53s-.83.86-.83,1.53v.55c0,.67.24,1.18.72,1.55.48.37,1.14.55,1.96.55Z"></path><path class="cls-1" d="M490.86,181.1v-13.57h2.1v2.5h.13c.25-.65.68-1.23,1.31-1.74s1.5-.76,2.6-.76h.82v2.11h-1.24c-1.14,0-2.03.21-2.67.64-.64.43-.96.97-.96,1.62v9.21h-2.1Z"></path><path class="cls-1" d="M503.51,181.1c-.74,0-1.29-.2-1.67-.62-.38-.41-.57-.95-.57-1.62v-9.47h-2.23v-1.87h1.26c.46,0,.77-.09.93-.28.17-.19.25-.5.25-.96v-2.53h1.89v3.76h2.97v1.87h-2.97v9.84h2.76v1.87h-2.63Z"></path><path class="cls-1" d="M520.88,181.42c-.91,0-1.75-.17-2.5-.5-.75-.33-1.4-.81-1.93-1.43-.54-.62-.95-1.37-1.25-2.24-.3-.87-.45-1.85-.45-2.93s.15-2.04.45-2.92c.3-.88.71-1.63,1.25-2.25.53-.62,1.18-1.1,1.93-1.43.75-.33,1.59-.5,2.5-.5s1.74.17,2.49.5c.75.33,1.39.81,1.93,1.43.54.62.96,1.37,1.26,2.25.3.88.45,1.85.45,2.92s-.15,2.06-.45,2.93c-.3.87-.72,1.61-1.26,2.24-.54.62-1.19,1.1-1.93,1.43s-1.57.5-2.49.5ZM520.88,179.55c1.14,0,2.07-.35,2.79-1.05.72-.7,1.08-1.77,1.08-3.21v-1.95c0-1.44-.36-2.51-1.08-3.21-.72-.7-1.65-1.05-2.79-1.05s-2.07.35-2.79,1.05c-.72.7-1.08,1.77-1.08,3.21v1.95c0,1.44.36,2.51,1.08,3.21.72.7,1.65,1.05,2.79,1.05Z"></path><path class="cls-1" d="M530.95,169.4h-2.21v-1.87h2.21v-2.74c0-.95.25-1.71.74-2.29.49-.58,1.24-.87,2.24-.87h2.05v1.87h-2.92v4.03h2.92v1.87h-2.92v11.71h-2.1v-11.71Z"></path><path class="cls-1" d="M550.36,181.42c-1.58,0-2.92-.28-4.01-.84-1.1-.56-2.04-1.3-2.83-2.21l2.34-2.27c.63.73,1.34,1.29,2.12,1.67.78.38,1.64.58,2.59.58,1.07,0,1.88-.23,2.42-.69.54-.46.82-1.08.82-1.87,0-.61-.18-1.11-.53-1.49s-1.01-.66-1.97-.84l-1.74-.26c-3.67-.58-5.5-2.36-5.5-5.35,0-.83.15-1.57.46-2.24.31-.67.75-1.24,1.33-1.71s1.28-.84,2.09-1.09c.81-.25,1.74-.38,2.78-.38,1.39,0,2.59.23,3.63.69,1.03.46,1.92,1.13,2.66,2.03l-2.37,2.24c-.46-.56-1.01-1.01-1.66-1.36-.65-.35-1.47-.52-2.45-.52s-1.75.19-2.25.56c-.5.37-.75.9-.75,1.58s.2,1.21.61,1.54c.4.33,1.05.57,1.95.73l1.71.32c1.86.33,3.23.92,4.12,1.78s1.33,2.04,1.33,3.57c0,.88-.15,1.67-.46,2.38s-.75,1.33-1.34,1.84-1.31.92-2.16,1.2c-.85.28-1.83.42-2.93.42Z"></path><path class="cls-1" d="M568.62,178.81h-.13c-.12.35-.29.68-.49.99-.2.31-.46.58-.76.83-.31.25-.68.44-1.11.58s-.92.21-1.49.21c-1.42,0-2.51-.47-3.26-1.39s-1.13-2.25-1.13-3.97v-8.68h3.37v8.34c0,.95.18,1.67.55,2.17.37.5.95.75,1.76.75.33,0,.66-.04.99-.13.33-.09.61-.22.86-.41s.45-.41.61-.68c.16-.27.24-.59.24-.96v-9.08h3.37v13.73h-3.37v-2.29Z"></path><path class="cls-1" d="M575.77,167.37h3.37v2.26h.11c.24-.79.71-1.42,1.39-1.88.69-.47,1.48-.7,2.39-.7,1.75,0,3.09.62,4.01,1.85s1.38,3,1.38,5.3-.46,4.1-1.38,5.34c-.92,1.25-2.26,1.87-4.01,1.87-.91,0-1.71-.24-2.38-.71s-1.14-1.11-1.41-1.89h-.11v7.55h-3.37v-18.99ZM581.95,178.63c.88,0,1.59-.29,2.13-.87.54-.58.81-1.36.81-2.34v-2.37c0-.98-.27-1.77-.81-2.36s-1.25-.88-2.13-.88c-.81,0-1.48.2-2.01.61-.53.4-.8.94-.8,1.6v4.37c0,.72.27,1.27.8,1.66.54.39,1.21.58,2.01.58Z"></path><path class="cls-1" d="M591.45,181.1v-13.73h3.37v2.84h.13c.09-.37.22-.72.41-1.07.18-.34.42-.64.72-.91s.65-.47,1.07-.63c.41-.16.89-.24,1.43-.24h.74v3.18h-1.05c-1.14,0-2,.17-2.58.5s-.87.88-.87,1.63v8.42h-3.37Z"></path><path class="cls-1" d="M607.1,181.42c-1.02,0-1.93-.17-2.72-.51-.8-.34-1.47-.82-2.03-1.45-.55-.62-.98-1.38-1.28-2.26s-.45-1.88-.45-2.99.14-2.07.44-2.95c.29-.88.7-1.63,1.25-2.25.54-.62,1.21-1.11,2-1.45s1.68-.51,2.68-.51c1.07,0,2,.18,2.79.55.79.37,1.44.87,1.95,1.5.51.63.89,1.36,1.14,2.2s.38,1.72.38,2.67v1.11h-9.13v.34c0,.99.28,1.79.84,2.39.56.6,1.39.9,2.5.9.84,0,1.53-.17,2.06-.52.54-.35,1.01-.79,1.43-1.33l1.82,2.03c-.56.79-1.33,1.41-2.3,1.86-.97.45-2.1.67-3.38.67ZM607.05,169.58c-.89,0-1.61.3-2.13.89-.53.6-.79,1.37-.79,2.31v.21h5.63v-.24c0-.95-.23-1.71-.7-2.3-.47-.59-1.14-.88-2.01-.88Z"></path><path class="cls-1" d="M616.13,181.1v-13.73h3.37v2.29h.13c.26-.72.68-1.33,1.26-1.84.58-.51,1.38-.76,2.42-.76.95,0,1.76.23,2.45.68s1.19,1.15,1.53,2.08h.05c.25-.77.73-1.42,1.46-1.96.73-.54,1.64-.8,2.75-.8,1.35,0,2.39.46,3.12,1.39.73.93,1.09,2.25,1.09,3.97v8.68h-3.37v-8.34c0-1.96-.74-2.95-2.21-2.95-.33,0-.65.05-.96.14s-.58.24-.81.42c-.24.18-.43.41-.57.68-.14.27-.21.59-.21.96v9.08h-3.37v-8.34c0-1.96-.74-2.95-2.21-2.95-.31,0-.63.05-.93.14s-.58.24-.82.42c-.24.18-.43.41-.58.68-.15.27-.22.59-.22.96v9.08h-3.37Z"></path><path class="cls-1" d="M644.93,181.42c-1.02,0-1.93-.17-2.72-.51-.8-.34-1.47-.82-2.03-1.45-.55-.62-.98-1.38-1.28-2.26s-.45-1.88-.45-2.99.14-2.07.44-2.95c.29-.88.7-1.63,1.25-2.25.54-.62,1.21-1.11,2-1.45s1.68-.51,2.68-.51c1.07,0,2,.18,2.79.55.79.37,1.44.87,1.95,1.5.51.63.89,1.36,1.14,2.2s.38,1.72.38,2.67v1.11h-9.13v.34c0,.99.28,1.79.84,2.39.56.6,1.39.9,2.5.9.84,0,1.53-.17,2.06-.52.54-.35,1.01-.79,1.43-1.33l1.82,2.03c-.56.79-1.33,1.41-2.3,1.86-.97.45-2.1.67-3.38.67ZM644.88,169.58c-.89,0-1.61.3-2.13.89-.53.6-.79,1.37-.79,2.31v.21h5.63v-.24c0-.95-.23-1.71-.7-2.3-.47-.59-1.14-.88-2.01-.88Z"></path><path class="cls-1" d="M671.97,178.26h-.11c-.16.89-.65,1.64-1.49,2.25s-1.94.91-3.33.91c-1.09,0-2.09-.2-3.01-.61-.92-.4-1.72-1-2.39-1.8-.68-.8-1.21-1.78-1.59-2.96-.39-1.17-.58-2.53-.58-4.08s.2-2.91.59-4.09.95-2.18,1.67-2.99c.72-.81,1.58-1.42,2.58-1.84,1-.42,2.11-.63,3.34-.63,1.65,0,3.05.36,4.21,1.08,1.16.72,2.07,1.75,2.74,3.11l-2.81,1.66c-.33-.79-.83-1.45-1.49-1.97-.66-.53-1.54-.79-2.64-.79-1.37,0-2.46.42-3.28,1.25-.81.83-1.22,2.06-1.22,3.7v2.95c0,1.61.41,2.84,1.24,3.68.82.84,1.93,1.26,3.31,1.26.54,0,1.05-.07,1.53-.2.47-.13.89-.33,1.24-.59.35-.26.63-.59.84-.97.21-.39.32-.84.32-1.37v-1.18h-3.6v-2.92h6.94v10h-3v-2.84Z"></path><path class="cls-1" d="M678.68,181.1v-13.73h3.37v2.84h.13c.09-.37.22-.72.41-1.07.18-.34.42-.64.72-.91s.65-.47,1.07-.63c.41-.16.89-.24,1.43-.24h.74v3.18h-1.05c-1.14,0-2,.17-2.58.5s-.87.88-.87,1.63v8.42h-3.37Z"></path><path class="cls-1" d="M694.22,181.42c-.98,0-1.86-.17-2.64-.5s-1.45-.82-2-1.45c-.55-.63-.98-1.39-1.28-2.28s-.45-1.88-.45-2.99.15-2.09.45-2.97c.3-.88.72-1.63,1.28-2.25.55-.62,1.22-1.1,2-1.43s1.66-.5,2.64-.5,1.87.17,2.66.5,1.46.81,2.01,1.43c.55.62.98,1.37,1.28,2.25.3.88.45,1.87.45,2.97s-.15,2.1-.45,2.99c-.3.89-.72,1.64-1.28,2.28-.55.63-1.22,1.11-2.01,1.45s-1.67.5-2.66.5ZM694.22,178.71c.89,0,1.59-.27,2.1-.81s.76-1.34.76-2.39v-2.55c0-1.03-.25-1.82-.76-2.37s-1.21-.82-2.1-.82-1.57.27-2.08.82c-.51.54-.76,1.33-.76,2.37v2.55c0,1.05.25,1.85.76,2.39.51.54,1.2.81,2.08.81Z"></path><path class="cls-1" d="M711.69,178.81h-.13c-.12.35-.29.68-.49.99-.2.31-.46.58-.76.83-.31.25-.68.44-1.11.58s-.92.21-1.49.21c-1.42,0-2.51-.47-3.26-1.39s-1.13-2.25-1.13-3.97v-8.68h3.37v8.34c0,.95.18,1.67.55,2.17.37.5.95.75,1.76.75.33,0,.66-.04.99-.13.33-.09.61-.22.86-.41s.45-.41.61-.68c.16-.27.24-.59.24-.96v-9.08h3.37v13.73h-3.37v-2.29Z"></path><path class="cls-1" d="M718.85,167.37h3.37v2.26h.11c.24-.79.71-1.42,1.39-1.88.69-.47,1.48-.7,2.39-.7,1.75,0,3.09.62,4.01,1.85s1.38,3,1.38,5.3-.46,4.1-1.38,5.34c-.92,1.25-2.26,1.87-4.01,1.87-.91,0-1.71-.24-2.38-.71s-1.14-1.11-1.41-1.89h-.11v7.55h-3.37v-18.99ZM725.03,178.63c.88,0,1.59-.29,2.13-.87.54-.58.81-1.36.81-2.34v-2.37c0-.98-.27-1.77-.81-2.36s-1.25-.88-2.13-.88c-.81,0-1.48.2-2.01.61-.53.4-.8.94-.8,1.6v4.37c0,.72.27,1.27.8,1.66.54.39,1.21.58,2.01.58Z"></path></g><g><g><path class="cls-1" d="M318.65,138.4c-5.19-3.79-8.39-9.19-9.58-16.21h8.84c1.19,4.84,3.54,8.51,7.05,11,3.51,2.49,8.1,3.74,13.79,3.74s9.91-1.28,13.31-3.84c3.4-2.56,5.1-5.95,5.1-10.16,0-3.65-1-6.54-3-8.68-2-2.14-5.1-3.63-9.31-4.47l-17.47-3.58c-5.68-1.12-9.91-3.1-12.68-5.95-2.77-2.84-4.16-6.82-4.16-11.94,0-4.14,1.23-7.66,3.68-10.58,2.45-2.91,5.74-5.1,9.84-6.58,4.1-1.47,8.61-2.21,13.52-2.21,7.58,0,13.68,1.72,18.31,5.16,4.63,3.44,7.4,8.38,8.31,14.84h-8.84c-.84-4.35-2.82-7.59-5.95-9.73-3.12-2.14-7.14-3.21-12.05-3.21-5.26,0-9.54,1.04-12.84,3.1-3.3,2.07-4.95,4.97-4.95,8.68,0,3.23.82,5.7,2.47,7.42,1.65,1.72,4.33,2.97,8.05,3.74l18.31,3.68c6.03,1.19,10.51,3.33,13.42,6.42,2.91,3.09,4.37,7.37,4.37,12.84,0,4.49-1.21,8.42-3.63,11.79-2.42,3.37-5.72,5.95-9.89,7.74-4.18,1.79-8.86,2.68-14.05,2.68-8.14,0-14.81-1.89-20-5.68Z"></path><path class="cls-1" d="M421.78,143.35h-7.79l-.84-16.31c-1.12,6.1-3.18,10.47-6.16,13.1-2.98,2.63-6.75,3.95-11.31,3.95-6.1,0-10.79-1.86-14.05-5.58-3.26-3.72-4.89-8.98-4.89-15.79v-33.36h9.05v32.41c0,4.84,1.14,8.54,3.42,11.1,2.28,2.56,5.56,3.84,9.84,3.84s7.74-1.42,10.16-4.26c2.42-2.84,3.63-6.68,3.63-11.52v-31.57h8.95v53.99Z"></path><path class="cls-1" d="M476.87,91.99c3.47,2.53,6.17,5.95,8.1,10.26,1.93,4.32,2.89,9,2.89,14.05s-.96,9.82-2.89,14.1c-1.93,4.28-4.67,7.7-8.21,10.26-3.54,2.56-7.56,3.84-12.05,3.84-5.26,0-9.68-1.68-13.26-5.05-3.58-3.37-5.96-8.66-7.16-15.89v39.15h-9.05v-73.35h7.79l.95,18.42c2.95-13.05,10-19.58,21.15-19.58,4.35,0,8.26,1.26,11.73,3.79ZM470.61,134.3c2.59-1.89,4.61-4.44,6.05-7.63,1.44-3.19,2.16-6.65,2.16-10.37s-.72-7.07-2.16-10.26c-1.44-3.19-3.47-5.75-6.1-7.68-2.63-1.93-5.6-2.89-8.89-2.89-3.51,0-6.58.95-9.21,2.84-2.63,1.89-4.65,4.44-6.05,7.63-1.4,3.19-2.11,6.65-2.11,10.37s.7,7.26,2.11,10.42c1.4,3.16,3.44,5.68,6.1,7.58,2.66,1.89,5.72,2.84,9.16,2.84s6.35-.95,8.95-2.84Z"></path><path class="cls-1" d="M528.81,96.41h-5.05c-5.33,0-9.51,1.6-12.52,4.79-3.02,3.19-4.53,7.91-4.53,14.16v27.99h-9.05v-53.99h7.47l.95,17.68c1.05-6.17,3.05-10.66,6-13.47,2.95-2.81,6.77-4.21,11.47-4.21h5.26v7.05Z"></path><path class="cls-1" d="M540.07,118.2c.21,6.03,1.91,10.79,5.1,14.26,3.19,3.47,7.42,5.21,12.68,5.21,7.65,0,12.87-3.23,15.68-9.68h8.21c-1.69,5.12-4.63,9.09-8.84,11.89-4.21,2.81-9.23,4.21-15.05,4.21-5.4,0-10.07-1.19-14-3.58-3.93-2.38-6.93-5.7-9-9.95-2.07-4.24-3.1-9.07-3.1-14.47,0-5.05,1.1-9.66,3.31-13.84,2.21-4.17,5.26-7.49,9.16-9.95,3.89-2.45,8.3-3.68,13.21-3.68s9.58,1.14,13.37,3.42c3.79,2.28,6.68,5.44,8.68,9.47,2,4.04,3,8.61,3,13.73v2.95h-42.41ZM548.59,97.25c-2.6,1.75-4.63,4.04-6.1,6.84-1.47,2.81-2.28,5.75-2.42,8.84h34.2c-.21-5.26-1.84-9.63-4.89-13.1-3.05-3.47-7.07-5.21-12.05-5.21-3.23,0-6.14.88-8.74,2.63Z"></path><path class="cls-1" d="M666.51,94.25c3.33,3.75,5,8.96,5,15.63v33.47h-9.05v-32.41c0-4.77-1.09-8.44-3.26-11-2.18-2.56-5.33-3.84-9.47-3.84s-7.47,1.42-9.79,4.26c-2.32,2.84-3.47,6.68-3.47,11.52v31.47h-8.84v-32.41c0-4.84-1.07-8.52-3.21-11.05-2.14-2.53-5.28-3.79-9.42-3.79s-7.42,1.37-9.84,4.1c-2.42,2.74-3.63,6.6-3.63,11.58v31.57h-9.05v-53.99h7.79l.95,16.52c.84-6.17,2.67-10.59,5.47-13.26,2.81-2.67,6.52-4,11.15-4s8.44,1.3,11.42,3.89c2.98,2.6,5,7.05,6.05,13.37.98-6.1,2.95-10.51,5.89-13.21,2.95-2.7,6.74-4.05,11.37-4.05,5.96,0,10.61,1.88,13.94,5.63Z"></path><path class="cls-1" d="M689.09,118.2c.21,6.03,1.91,10.79,5.1,14.26,3.19,3.47,7.42,5.21,12.68,5.21,7.65,0,12.87-3.23,15.68-9.68h8.21c-1.68,5.12-4.63,9.09-8.84,11.89-4.21,2.81-9.23,4.21-15.05,4.21-5.4,0-10.07-1.19-14-3.58-3.93-2.38-6.93-5.7-9-9.95-2.07-4.24-3.1-9.07-3.1-14.47,0-5.05,1.11-9.66,3.32-13.84,2.21-4.17,5.26-7.49,9.16-9.95,3.89-2.45,8.3-3.68,13.21-3.68s9.58,1.14,13.37,3.42c3.79,2.28,6.68,5.44,8.68,9.47,2,4.04,3,8.61,3,13.73v2.95h-42.41ZM697.61,97.25c-2.6,1.75-4.63,4.04-6.1,6.84-1.47,2.81-2.28,5.75-2.42,8.84h34.2c-.21-5.26-1.84-9.63-4.89-13.1-3.05-3.47-7.07-5.21-12.05-5.21-3.23,0-6.14.88-8.74,2.63Z"></path></g><path class="cls-1" d="M152.45,91.01c-2.76-.21-5.5-.41-8.21-.62-4.37-.34-8.65-.69-12.73-1.05V.19l-.52-.02c-4.05-.12-7.49-.17-10.82-.17C54.21,0,40.58,18.56,40.24,48.52,13.54,56,0,70.67,0,92.13c0,18.72,9.12,30.77,28.69,37.91,17.51,6.39,42.12,8.68,75,11.24,6.18.43,12.21.86,18.01,1.32v88.79l.51.02c4.99.17,9.25.25,13.4.25,55.81,0,75.74-12.59,75.94-48.07,26.69-7.21,40.23-21.69,40.23-43.04,0-42.09-52.77-46.04-99.33-49.53ZM121.7,50.79v37.62c-44.43-4.47-69.18-11.28-72.33-33.95,12.19-2.54,27.53-3.83,45.61-3.83,2.4,0,16.74.07,26.73.16ZM49.05,46.41c.79-24.82,12.61-38.26,71.12-38.26.42,0,.83,0,1.25.02h.28v34.4c-10.11-.06-24.34-.09-26.73-.09-17.72,0-33.16,1.32-45.92,3.93ZM104.02,132.87c-67.16-5.2-95.24-12.08-95.24-41.24,0-17.19,10.45-28.64,31.93-34.99,3.9,27.93,31.54,35.78,80.99,40.32v37.26c-3.12-.25-6.24-.48-9.33-.71-2.81-.21-5.6-.42-8.35-.63ZM131.51,180.84v-37.39c39.49,3.72,66.61,11.04,70.71,34.34-11.6,2.18-25.54,3.24-42.58,3.24-2.93,0-17.8-.07-28.13-.18ZM202.76,185.61c-.31,26.2-10.31,37.89-66.9,37.89-1.45,0-2.9-.03-4.36-.06v-34.4c10.22.08,24.97.13,27.88.13,16.67,0,31.26-1.2,43.38-3.56ZM243,141.8c0,17.01-10.48,28.14-32.04,33.99-2.27-13.81-11.22-23.76-27.36-30.42-15.26-6.29-34.85-8.77-52.09-10.34v-37.24c4.03.33,8.16.66,12.4.99,53.17,3.73,99.09,6.96,99.09,43.01Z"></path></g></g></g></svg> 